<svg width="720" height="720" viewBox="0 0 720 720" fill="none" xmlns="http://www.w3.org/2000/svg">
  <rect width="720" height="720" rx="44" fill="#F9F1E7"/>
  <circle cx="580" cy="153" r="84" fill="#E8CC96" fill-opacity="0.48"/>
  <circle cx="161" cy="555" r="118" fill="#8EB7AC" fill-opacity="0.24"/>
  <ellipse cx="360" cy="409" rx="208" ry="146" fill="#C76A51"/>
  <ellipse cx="360" cy="408" rx="157" ry="104" fill="#F5E2C7"/>
  <path d="M194 351C215.333 290.333 270 260 358 260C446 260 504.333 289.333 533 348" stroke="#B55D45" stroke-width="18" stroke-linecap="round"/>
  <path d="M278 374C311.333 351.333 355 340 409 340C463 340 503.667 351.667 531 375" stroke="#D7AF66" stroke-width="10" stroke-linecap="round"/>
  <path d="M254 468C298.667 488.667 335 499 363 499C391 499 430 488.667 480 468" stroke="#8EB7AC" stroke-width="12" stroke-linecap="round"/>
  <circle cx="275" cy="327" r="16" fill="#1F2430" fill-opacity="0.14"/>
  <circle cx="446" cy="315" r="14" fill="#1F2430" fill-opacity="0.14"/>
</svg>